<svg width="595" height="163" viewBox="0 0 595 163" fill="none" xmlns="http://www.w3.org/2000/svg">
<g clip-path="url(#clip0_6625_5774)">
<path d="M58.0902 133.514C49.9086 133.514 43.3633 139.722 43.3633 148.257C43.3633 156.793 49.9086 163 58.0902 163C66.2719 163 72.8171 156.792 72.8171 148.257C72.8171 139.722 66.2718 133.514 58.0902 133.514Z" fill="white"/>
<path d="M100.633 133.514C92.4516 133.514 85.9062 139.722 85.9062 148.257C85.9062 156.793 92.4516 163 100.633 163C108.815 163 115.36 156.792 115.36 148.257C115.36 139.722 108.815 133.514 100.633 133.514Z" fill="white"/>
<path d="M58.0902 0C49.9086 0 43.3633 6.2075 43.3633 14.7429C43.3633 23.2783 49.9086 29.4858 58.0902 29.4858C66.2719 29.4858 72.8171 23.2782 72.8171 14.7429C72.8171 6.20759 66.2718 0 58.0902 0Z" fill="white"/>
<path d="M100.633 0C92.4516 0 85.9062 6.2075 85.9062 14.7429C85.9062 23.2783 92.4516 29.4858 100.633 29.4858C108.815 29.4858 115.36 23.2782 115.36 14.7429C115.36 6.20759 108.815 0 100.633 0Z" fill="white"/>
<path d="M14.727 45.0508C6.5453 45.0508 0 51.2584 0 59.7937C0 68.329 6.5453 74.5365 14.727 74.5365C22.9086 74.5365 29.4539 68.329 29.4539 59.7937C29.4539 51.2583 22.9086 45.0508 14.727 45.0508Z" fill="white"/>
<path d="M14.727 88.4634C6.5453 88.4634 0 94.671 0 103.206C0 111.742 6.5453 117.949 14.727 117.949C22.9086 117.949 29.4539 111.742 29.4539 103.206C29.4539 94.6709 22.9086 88.4634 14.727 88.4634Z" fill="white"/>
<path d="M143.995 45.0508C135.814 45.0508 129.27 51.2584 129.27 59.7937C129.27 68.329 135.814 74.5365 143.995 74.5365C152.176 74.5365 158.721 68.329 158.721 59.7937C158.721 51.2583 152.176 45.0508 143.995 45.0508Z" fill="white"/>
<path d="M143.995 88.4634C135.814 88.4634 129.27 94.671 129.27 103.206C129.27 111.742 135.814 117.949 143.995 117.949C152.176 117.949 158.721 111.742 158.721 103.206C158.721 94.6709 152.176 88.4634 143.995 88.4634Z" fill="white"/>
<path d="M319.418 109.086C318.586 91.5815 311.093 84.9133 301.102 82.4127C312.758 79.0785 322.749 72.4103 322.749 53.239C322.749 34.0677 309.428 21.5648 282.785 21.5648H234.496V138.259H253.652V90.748H274.46C295.274 90.748 300.269 98.2498 300.269 119.922C300.269 129.017 301.934 134.092 303.6 138.259H323.581C320.251 134.092 319.418 121.832 319.418 113.253V109.086ZM295.274 71.5767C291.944 74.9109 286.948 75.7445 281.12 75.7445H253.645V38.2355H278.622C286.116 38.2355 290.278 39.069 294.441 41.5696C299.437 44.0702 301.934 49.905 301.934 56.5732C301.934 63.2414 299.437 68.2426 295.274 71.5767Z" fill="white"/>
<path d="M367.707 49.905C342.73 49.905 326.078 69.0762 326.078 95.7492C326.078 122.422 348.558 141.594 368.539 141.594C388.521 141.594 402.675 129.924 407.67 113.253H387.688C385.191 119.088 381.028 125.756 368.539 125.756C356.051 125.756 345.227 117.421 345.227 100.75H408.503C408.503 71.5768 392.684 49.905 367.707 49.905ZM346.06 86.5804C346.892 74.0774 355.218 64.9086 367.707 64.9086C380.195 64.9086 388.521 74.0774 388.521 86.5804H346.06Z" fill="white"/>
<path d="M495.09 49.905C470.112 49.905 453.461 69.0762 453.461 95.7492C453.461 122.66 475.94 141.594 495.922 141.594C515.904 141.594 530.058 129.924 535.053 113.253H515.071C512.574 119.088 508.411 125.756 495.922 125.756C483.434 125.756 472.61 117.421 472.61 100.75H535.886C535.886 71.5768 520.067 49.905 495.09 49.905ZM473.443 86.5804C474.275 74.0774 482.601 64.9086 495.09 64.9086C507.578 64.9086 515.904 74.0774 515.904 86.5804H473.443Z" fill="white"/>
<path d="M562.528 21.5648H543.379V138.169H562.528V21.5648Z" fill="white"/>
<path d="M595.001 21.5648H575.852V138.169H595.001V21.5648Z" fill="white"/>
<path d="M437.656 24.8946L418.476 24.8843L418.49 49.9085H406.848V64.8219H418.49V119.3C418.49 126.153 419.859 130.264 423.966 134.376C428.073 138.488 432.185 139.863 439.03 139.863H453.436V123.412H445.87C443.398 123.412 441.669 122.975 440.469 122.594C439.24 122.205 438.286 121.227 437.985 119.973C437.656 118.597 437.656 116.804 437.656 115.099V64.8218H453.436V49.9085H437.656V24.8946Z" fill="white"/>
</g>
<defs>
<clipPath id="clip0_6625_5774">
<rect width="595" height="163" fill="white"/>
</clipPath>
</defs>
</svg>
